<svg width="512" height="512" viewBox="0 0 512 512" fill="none" xmlns="http://www.w3.org/2000/svg">
<path d="M48.5352 508.794C35.9823 509.524 23.6371 505.351 14.1028 497.155C-4.70092 478.24 -4.70092 447.69 14.1028 428.774L425.842 17.0338C445.399 -1.26683 476.088 -0.249514 494.389 19.308C510.937 36.9937 511.902 64.1771 496.647 82.9904L82.4821 497.155C73.0706 505.233 60.9235 509.398 48.5352 508.794V508.794Z" fill="white"/>
<path d="M459.79 508.793C447.068 508.739 434.874 503.689 425.841 494.73L14.1008 82.9879C-3.31983 62.6447 -0.951408 32.0292 19.3918 14.607C37.5487 -0.941908 64.3264 -0.941908 82.4817 14.607L496.646 426.347C516.199 444.653 517.21 475.343 498.905 494.896C498.176 495.674 497.424 496.426 496.646 497.154C486.505 505.973 473.159 510.188 459.79 508.793V508.793Z" fill="white"/>
</svg>
