<svg id="Capa_1" enable-background="new 0 0 512 512" height="512" viewBox="0 0 512 512" width="512" xmlns="http://www.w3.org/2000/svg"><path d="m503.077 240.986-79.919-105.167c-7.884-10.375-20.37-16.569-33.4-16.569h-65.505v-10.024c0-19.582-15.932-35.514-35.515-35.514h-253.223c-19.583-.001-35.515 15.931-35.515 35.513v251.575c0 19.583 15.932 35.515 35.515 35.515h33.677c5.63 24.024 27.219 41.974 52.935 41.974s47.304-17.949 52.934-41.974h172.196c5.63 24.024 27.219 41.974 52.935 41.974s47.304-17.949 52.934-41.974h15.086c24.145 0 43.787-19.644 43.787-43.788v-85.048c.001-9.51-3.167-18.918-8.922-26.493zm-113.319-91.736c3.712 0 7.269 1.765 9.514 4.72l50.189 66.044h-125.208v-70.764zm-319.073 217.065h-35.17c-3.041 0-5.515-2.474-5.515-5.515v-251.575c0-3.04 2.474-5.514 5.515-5.514h253.224c3.041 0 5.515 2.474 5.515 5.514v257.09h-120.686c-7.331-21.373-27.614-36.785-51.441-36.785-23.828 0-44.111 15.412-51.442 36.785zm51.442 41.974c-13.443 0-24.38-10.937-24.38-24.38 0-13.442 10.937-24.379 24.38-24.379 13.442 0 24.379 10.937 24.379 24.379 0 13.443-10.937 24.38-24.379 24.38zm278.065 0c-13.443 0-24.38-10.937-24.38-24.38 0-13.442 10.937-24.379 24.38-24.379 13.442 0 24.379 10.937 24.379 24.379 0 13.443-10.936 24.38-24.379 24.38zm81.808-55.762c0 7.603-6.185 13.788-13.787 13.788h-16.579c-7.331-21.373-27.614-36.785-51.441-36.785-23.828 0-44.111 15.412-51.442 36.785h-24.497v-55.809h24.161c8.284 0 15-6.716 15-15s-6.716-15-15-15h-24.161v-30.493h148.005l6.931 9.121c1.813 2.387 2.811 5.35 2.811 8.345v85.048z"/></svg>